#tb 0: 1/30
#tb 1: 1/44100
0,          0,          0,        1,   153600, 0xfc6c6749
1,          0,          0,     1024,     4096, 0x00000000
1,       1024,       1024,      446,     1784, 0x00000000
0,          1,          1,        1,   153600, 0xfc6c6749
1,       1470,       1470,     1024,     4096, 0x00000000
1,       2494,       2494,      446,     1784, 0x00000000
0,          2,          2,        1,   153600, 0xfc6c6749
1,       2940,       2940,     1024,     4096, 0x00000000
1,       3964,       3964,      446,     1784, 0x00000000
0,          3,          3,        1,   153600, 0xfc6c6749
1,       4410,       4410,     1024,     4096, 0x00000000
1,       5434,       5434,      446,     1784, 0x00000000
0,          4,          4,        1,   153600, 0xfc6c6749
1,       5880,       5880,     1024,     4096, 0x00000000
1,       6904,       6904,      446,     1784, 0x00000000
0,          5,          5,        1,   153600, 0xfc6c6749
1,       7350,       7350,     1024,     4096, 0x00000000
1,       8374,       8374,      446,     1784, 0x00000000
0,          6,          6,        1,   153600, 0xfc6c6749
1,       8820,       8820,     1024,     4096, 0x00000000
1,       9844,       9844,      446,     1784, 0x00000000
0,          7,          7,        1,   153600, 0xfc6c6749
1,      10290,      10290,     1024,     4096, 0x00000000
1,      11314,      11314,      446,     1784, 0x00000000
0,          8,          8,        1,   153600, 0xfc6c6749
1,      11760,      11760,     1024,     4096, 0x00000000
1,      12784,      12784,      446,     1784, 0x00000000
0,          9,          9,        1,   153600, 0xfc6c6749
1,      13230,      13230,     1024,     4096, 0x00000000
1,      14254,      14254,      446,     1784, 0x00000000
0,         10,         10,        1,   153600, 0xfc6c6749
1,      14700,      14700,     1024,     4096, 0x00000000
1,      15724,      15724,      446,     1784, 0x00000000
0,         11,         11,        1,   153600, 0xfc6c6749
1,      16170,      16170,     1024,     4096, 0x00000000
1,      17194,      17194,      446,     1784, 0x00000000
0,         12,         12,        1,   153600, 0xfc6c6749
1,      17640,      17640,     1024,     4096, 0x00000000
1,      18664,      18664,      446,     1784, 0x00000000
0,         13,         13,        1,   153600, 0xfc6c6749
1,      19110,      19110,     1024,     4096, 0x00000000
1,      20134,      20134,      446,     1784, 0x00000000
0,         14,         14,        1,   153600, 0xfc6c6749
1,      20580,      20580,     1024,     4096, 0x00000000
1,      21604,      21604,      446,     1784, 0x00000000
0,         15,         15,        1,   153600, 0xfc6c6749
1,      22050,      22050,     1024,     4096, 0xe3e9b43e
1,      23074,      23074,      446,     1784, 0x7a94545d
0,         16,         16,        1,   153600, 0x86a77b96
1,      23520,      23520,     1024,     4096, 0x88f613f7
1,      24544,      24544,      446,     1784, 0x562796b1
0,         17,         17,        1,   153600, 0x8119e1e1
1,      24990,      24990,     1024,     4096, 0x49dc1522
1,      26014,      26014,      446,     1784, 0x058ed17f
0,         18,         18,        1,   153600, 0x0635de69
1,      26460,      26460,     1024,     4096, 0x47e38762
1,      27484,      27484,      446,     1784, 0x95e79727
0,         19,         19,        1,   153600, 0xf52eff34
1,      27930,      27930,     1024,     4096, 0x0a38a8e4
1,      28954,      28954,      446,     1784, 0x9aefdc4b
0,         20,         20,        1,   153600, 0xc240dfe3
1,      29400,      29400,     1024,     4096, 0x15f78fca
1,      30424,      30424,      446,     1784, 0xda12ca75
0,         21,         21,        1,   153600, 0xf3d378d4
1,      30870,      30870,     1024,     4096, 0x265c36e9
1,      31894,      31894,      446,     1784, 0x5efb54b3
0,         22,         22,        1,   153600, 0xf35b8958
1,      32340,      32340,     1024,     4096, 0xe9f1fb61
1,      33364,      33364,      446,     1784, 0x499368bd
0,         23,         23,        1,   153600, 0x4981b667
1,      33810,      33810,     1024,     4096, 0x836d4e1c
1,      34834,      34834,      446,     1784, 0x57675561
0,         24,         24,        1,   153600, 0x326e6e14
1,      35280,      35280,     1024,     4096, 0x7b55e8fd
1,      36304,      36304,      446,     1784, 0xc6e33484
0,         25,         25,        1,   153600, 0x51f38814
1,      36750,      36750,     1024,     4096, 0xf5cb2340
1,      37774,      37774,      446,     1784, 0xb6ae5a3d
0,         26,         26,        1,   153600, 0xdc1f9c61
1,      38220,      38220,     1024,     4096, 0x5f50c5b7
1,      39244,      39244,      446,     1784, 0x5cfeb81f
0,         27,         27,        1,   153600, 0xd69102bb
1,      39690,      39690,     1024,     4096, 0x36eeb745
1,      40714,      40714,      446,     1784, 0x67f571e3
0,         28,         28,        1,   153600, 0x5badff34
1,      41160,      41160,     1024,     4096, 0x69dca543
1,      42184,      42184,      446,     1784, 0x255caee5
0,         29,         29,        1,   153600, 0x4ab5200e
1,      42630,      42630,     1024,     4096, 0xb8eeed95
1,      43654,      43654,      446,     1784, 0x8173af6d
0,         30,         30,        1,   153600, 0x17c700bd
1,      44100,      44100,     1024,     4096, 0xcbc94b4c
1,      45124,      45124,      446,     1784, 0x78fd9c3b
0,         31,         31,        1,   153600, 0x495a999f
1,      45570,      45570,     1024,     4096, 0x2d7a3dc6
1,      46594,      46594,      446,     1784, 0xfc20b669
0,         32,         32,        1,   153600, 0x48e2aa23
1,      47040,      47040,     1024,     4096, 0xdfd25bb0
1,      48064,      48064,      446,     1784, 0x6bfd90bb
0,         33,         33,        1,   153600, 0x9ef9d732
1,      48510,      48510,     1024,     4096, 0xfd711c86
1,      49534,      49534,      446,     1784, 0xf08394db
0,         34,         34,        1,   153600, 0x87e68edf
1,      49980,      49980,     1024,     4096, 0x9098cf34
1,      51004,      51004,      446,     1784, 0xa91d89eb
0,         35,         35,        1,   153600, 0x759568c3
1,      51450,      51450,     1024,     4096, 0xb2e666f0
1,      52474,      52474,      446,     1784, 0xe9e5c3af
0,         36,         36,        1,   153600, 0xffc17d10
1,      52920,      52920,     1024,     4096, 0xcdec7480
1,      53944,      53944,      446,     1784, 0x7b13802d
0,         37,         37,        1,   153600, 0xfa33e35b
1,      54390,      54390,     1024,     4096, 0xbc9dbaac
1,      55414,      55414,      446,     1784, 0xa92ac4b7
0,         38,         38,        1,   153600, 0x7f4fdfe3
1,      55860,      55860,     1024,     4096, 0x7dfd863a
1,      56884,      56884,      446,     1784, 0x19e0a385
0,         39,         39,        1,   153600, 0x6e5700bd
1,      57330,      57330,     1024,     4096, 0xc5cdbbc2
1,      58354,      58354,      446,     1784, 0xcfeeb711
0,         40,         40,        1,   153600, 0x3b69e15d
1,      58800,      58800,     1024,     4096, 0x1b7b40a1
1,      59824,      59824,      446,     1784, 0x6717db57
0,         41,         41,        1,   153600, 0x6cfc7a4e
1,      60270,      60270,     1024,     4096, 0x327aecbf
1,      61294,      61294,      446,     1784, 0x42cf92bd
0,         42,         42,        1,   153600, 0x6c848ad2
1,      61740,      61740,     1024,     4096, 0x549ecdf1
1,      62764,      62764,      446,     1784, 0x6ff278ed
0,         43,         43,        1,   153600, 0xc29bb7e1
1,      63210,      63210,     1024,     4096, 0xdcca148c
1,      64234,      64234,      446,     1784, 0x1093cd6b
0,         44,         44,        1,   153600, 0xab886f8e
1,      64680,      64680,     1024,     4096, 0x222acd1f
1,      65704,      65704,      446,     1784, 0xd3e78d4d
0,         45,         45,        1,   153600, 0xab886f8e
1,      66150,      66150,     1024,     4096, 0x00000000
1,      67174,      67174,      446,     1784, 0x00000000
0,         46,         46,        1,   153600, 0xab886f8e
1,      67620,      67620,     1024,     4096, 0x00000000
1,      68644,      68644,      446,     1784, 0x00000000
0,         47,         47,        1,   153600, 0xab886f8e
1,      69090,      69090,     1024,     4096, 0x00000000
1,      70114,      70114,      446,     1784, 0x00000000
0,         48,         48,        1,   153600, 0xab886f8e
1,      70560,      70560,     1024,     4096, 0x00000000
1,      71584,      71584,      446,     1784, 0x00000000
0,         49,         49,        1,   153600, 0xab886f8e
1,      72030,      72030,     1024,     4096, 0x00000000
1,      73054,      73054,      446,     1784, 0x00000000
0,         50,         50,        1,   153600, 0xab886f8e
1,      73500,      73500,     1024,     4096, 0x00000000
1,      74524,      74524,      446,     1784, 0x00000000
0,         51,         51,        1,   153600, 0xab886f8e
1,      74970,      74970,     1024,     4096, 0x00000000
1,      75994,      75994,      446,     1784, 0x00000000
0,         52,         52,        1,   153600, 0xab886f8e
1,      76440,      76440,     1024,     4096, 0x00000000
1,      77464,      77464,      446,     1784, 0x00000000
0,         53,         53,        1,   153600, 0xab886f8e
1,      77910,      77910,     1024,     4096, 0x00000000
1,      78934,      78934,      446,     1784, 0x00000000
0,         54,         54,        1,   153600, 0xab886f8e
1,      79380,      79380,     1024,     4096, 0x00000000
1,      80404,      80404,      446,     1784, 0x00000000
0,         55,         55,        1,   153600, 0xab886f8e
1,      80850,      80850,     1024,     4096, 0x00000000
1,      81874,      81874,      446,     1784, 0x00000000
0,         56,         56,        1,   153600, 0xab886f8e
1,      82320,      82320,     1024,     4096, 0x00000000
1,      83344,      83344,      446,     1784, 0x00000000
0,         57,         57,        1,   153600, 0xab886f8e
1,      83790,      83790,     1024,     4096, 0x00000000
1,      84814,      84814,      446,     1784, 0x00000000
0,         58,         58,        1,   153600, 0xab886f8e
1,      85260,      85260,     1024,     4096, 0x00000000
1,      86284,      86284,      446,     1784, 0x00000000
0,         59,         59,        1,   153600, 0xab886f8e
1,      86730,      86730,     1024,     4096, 0x00000000
1,      87754,      87754,      446,     1784, 0x00000000
